#!OML:ASF H:\Pregnant\Project 1\Capture day 1\Session 1\femalepreg.ASF
:FULLY-SPECIFIED
:DEGREES
772
root 7.82201 20.2843 4.553 -165.522 109.577 -187.96
lowerback -14.3613 0.272361 0.794574
upperback -3.26413 0.291296 1.27956
thorax 4.59563 0.198586 0.95099
lowerneck -19.4087 -6.64473 -2.80266
upperneck 34.7036 -11.937 9.68549
head 16.6747 -3.64926 2.42418
rclavicle 2.91592e-014 -2.48481e-014
rhumerus -36.0866 -7.59616 -69.2944
rradius 34.8935
rwrist -8.49313
rhand -22.7801 -19.5163
rfingers 7.12502
rthumb 3.6555 -49.4647
lclavicle 2.91592e-014 -2.48481e-014
lhumerus -43.1335 -9.21981 78.2688
lradius 25.8072
lwrist 43.0085
lhand -30.2673 0.134999
lfingers 7.12502
lthumb -3.57563 30.0848
rfemur -43.8064 31.579 12.1773
rtibia 37.5658
rfoot -15.8285 4.46391
rtoes -2.23217
lfemur -36.2442 -21.873 -8.0816
ltibia 28.4429
lfoot -14.2861 -5.96365
ltoes -20.5336
773
root 7.8312 20.2904 4.52757 -164.862 110.555 -187.424
lowerback -14.4416 0.148703 0.282328
upperback -3.28213 0.204884 1.19938
thorax 4.62024 0.149911 1.14142
lowerneck -19.4946 -6.66054 -2.77978
upperneck 34.8965 -12.0391 9.77513
head 16.8162 -3.66563 2.44396
rclavicle 4.62796e-016 -2.09966e-014
rhumerus -36.2986 -7.96681 -69.2535
rradius 34.9607
rwrist -8.3495
rhand -22.7025 -19.4511
rfingers 7.12502
rthumb 3.73043 -49.3982
lclavicle 4.62796e-016 -2.09966e-014
lhumerus -42.8672 -9.55847 78.0844
lradius 25.7634
lwrist 42.9668
lhand -30.2088 0.100491
lfingers 7.12502
lthumb -3.51912 30.0512
rfemur -44.2855 32.0579 11.541
rtibia 37.5392
rfoot -15.7574 4.86774
rtoes -1.98808
lfemur -35.9928 -21.3875 -8.49205
ltibia 28.2157
lfoot -14.1495 -5.61578
ltoes -20.6179
774
root 7.83936 20.2961 4.50288 -164.265 111.502 -186.965
lowerback -14.5097 0.0154453 -0.238436
upperback -3.32548 0.108802 1.12845
thorax 4.61269 0.0970129 1.34438
lowerneck -19.563 -6.68635 -2.75459
upperneck 35.0885 -12.1514 9.84792
head 16.9532 -3.68874 2.45421
rclavicle 1.93442e-014 -1.98785e-015
rhumerus -36.5608 -8.26798 -69.2103
rradius 35.0451
rwrist -8.276
rhand -22.5829 -19.4124
rfingers 7.12502
rthumb 3.8459 -49.3575
lclavicle 1.93442e-014 -1.98785e-015
lhumerus -42.6156 -9.88676 77.8848
lradius 25.7339
lwrist 42.9055
lhand -30.1336 0.0472123
lfingers 7.12502
lthumb -3.44645 29.9991
rfemur -44.7804 32.4873 10.9174
rtibia 37.5112
rfoot -15.6847 5.29461
rtoes -1.67863
lfemur -35.7953 -20.9079 -8.86922
ltibia 28.0255
lfoot -14.0272 -5.30597
ltoes -20.5719
775
root 7.84669 20.3012 4.47846 -163.777 112.424 -186.628
lowerback -14.5642 -0.111655 -0.715543
upperback -3.38588 0.0159743 1.0529
thorax 4.58095 0.0469306 1.51823
lowerneck -19.6121 -6.72151 -2.7139
upperneck 35.2692 -12.279 9.91042
head 17.0797 -3.71853 2.45396
rclavicle 1.09332e-015 1.09332e-015
rhumerus -36.8634 -8.5346 -69.1737
rradius 35.1339
rwrist -8.2565
rhand -22.4324 -19.3767
rfingers 7.12502
rthumb 3.99125 -49.319
lclavicle 1.09332e-015 1.09332e-015
lhumerus -42.3649 -10.2271 77.6566
lradius 25.7201
lwrist 42.8344
lhand -30.064 -0.034076
lfingers 7.12502
lthumb -3.37928 29.9189
rfemur -45.2758 32.8802 10.3294
rtibia 37.4652
rfoot -15.6002 5.7436
rtoes -1.31999
lfemur -35.6402 -20.4481 -9.1946
ltibia 27.8711
lfoot -13.9222 -4.97361
ltoes -20.5315
776
root 7.85334 20.3058 4.45434 -163.416 113.331 -186.423
lowerback -14.6212 -0.241307 -1.16268
upperback -3.44541 -0.0852186 0.996963
thorax 4.55281 -0.00664835 1.69427
lowerneck -19.6485 -6.753 -2.66374
upperneck 35.4291 -12.3959 9.95383
head 17.1887 -3.74713 2.44502
rclavicle 7.73272e-014 -1.78906e-015
rhumerus -37.1696 -8.75935 -69.1325
rradius 35.2233
rwrist -8.27104
rhand -22.2498 -19.3377
rfingers 7.12502
rthumb 4.16759 -49.2766
lclavicle 7.73272e-014 -1.78906e-015
lhumerus -42.1174 -10.5678 77.4277
lradius 25.7518
lwrist 42.8124
lhand -30.0135 -0.124442
lfingers 7.12502
lthumb -3.33047 29.8293
rfemur -45.757 33.2526 9.79176
rtibia 37.3874
rfoot -15.4946 6.22014
rtoes -0.90886
lfemur -35.5095 -19.9885 -9.47008
ltibia 27.75
lfoot -13.8451 -4.62166
ltoes -20.5335
777
root 7.8601 20.3104 4.43006 -163.156 114.206 -186.329
lowerback -14.6841 -0.374909 -1.56114
upperback -3.50849 -0.19867 0.949607
thorax 4.52575 -0.0653909 1.84952
lowerneck -19.6576 -6.77788 -2.59717
upperneck 35.5669 -12.5038 9.99126
head 17.2767 -3.77288 2.43208
rclavicle 7.62588e-014 2.00773e-014
rhumerus -37.488 -8.94087 -69.1012
rradius 35.3032
rwrist -8.31702
rhand -22.0511 -19.2908
rfingers 7.12502
rthumb 4.35938 -49.2259
lclavicle 7.62588e-014 2.00773e-014
lhumerus -41.8703 -10.897 77.1756
lradius 25.8147
lwrist 42.8175
lhand -29.9941 -0.202511
lfingers 7.12502
lthumb -3.31173 29.7515
rfemur -46.1973 33.5474 9.33489
rtibia 37.2728
rfoot -15.3802 6.76473
rtoes -0.444287
lfemur -35.4013 -19.5381 -9.7027
ltibia 27.6614
lfoot -13.7974 -4.26019
ltoes -20.562
778
root 7.86685 20.3145 4.40553 -163.01 115.063 -186.356
lowerback -14.7438 -0.504517 -1.90757
upperback -3.57717 -0.315218 0.923321
thorax 4.49215 -0.124712 1.99685
lowerneck -19.6462 -6.79412 -2.54426
upperneck 35.692 -12.5899 10.0241
head 17.3512 -3.79385 2.42403
rclavicle -6.95746e-015 5.24792e-014
rhumerus -37.8254 -9.09911 -69.0521
rradius 35.3727
rwrist -8.35804
rhand -21.8485 -19.2332
rfingers 7.12502
rthumb 4.55508 -49.1642
lclavicle -6.95746e-015 5.24792e-014
lhumerus -41.6283 -11.2028 76.9163
lradius 25.9063
lwrist 42.8518
lhand -29.9723 -0.282157
lfingers 7.12502
lthumb -3.29075 29.6722
rfemur -46.614 33.8389 8.92933
rtibia 37.1199
rfoot -15.2421 7.31161
rtoes 0.056814
lfemur -35.3078 -19.0927 -9.88874
ltibia 27.6037
lfoot -13.775 -3.8616
ltoes -20.6784
779
root 7.87263 20.3182 4.38025 -162.945 115.905 -186.487
lowerback -14.8045 -0.629768 -2.20897
upperback -3.65654 -0.433296 0.919381
thorax 4.44893 -0.18375 2.14187
lowerneck -19.6297 -6.79426 -2.49001
upperneck 35.8094 -12.6458 10.0436
head 17.4155 -3.80501 2.41598
rclavicle 2.87741e-014 7.55382e-015
rhumerus -38.1685 -9.23179 -68.9829
rradius 35.4219
rwrist -8.40553
rhand -21.6211 -19.1778
rfingers 7.12502
rthumb 4.77468 -49.104
lclavicle 2.87741e-014 7.55382e-015
lhumerus -41.381 -11.4745 76.6459
lradius 26.0183
lwrist 42.8953
lhand -29.9734 -0.351208
lfingers 7.12502
lthumb -3.2918 29.6031
rfemur -47.0362 34.1245 8.5642
rtibia 36.9353
rfoot -15.0774 7.86128
rtoes 0.60696
lfemur -35.2475 -18.627 -10.0264
ltibia 27.5767
lfoot -13.7793 -3.44516
ltoes -20.8942
780
root 7.87771 20.3213 4.35437 -162.945 116.739 -186.701
lowerback -14.8647 -0.750082 -2.47212
upperback -3.74333 -0.551371 0.937654
thorax 4.39852 -0.241928 2.28858
lowerneck -19.6294 -6.77824 -2.43253
upperneck 35.9375 -12.6697 10.037
head 17.4831 -3.80551 2.40234
rclavicle 2.13694e-014 -1.94809e-014
rhumerus -38.5203 -9.34788 -68.896
rradius 35.4511
rwrist -8.43095
rhand -21.4049 -19.1188
rfingers 7.12502
rthumb 4.98342 -49.0402
lclavicle 2.13694e-014 -1.94809e-014
lhumerus -41.1309 -11.7151 76.3662
lradius 26.1543
lwrist 42.9627
lhand -29.9815 -0.408535
lfingers 7.12502
lthumb -3.29961 29.5457
rfemur -47.4623 34.4119 8.23191
rtibia 36.7267
rfoot -14.888 8.41604
rtoes 1.23827
lfemur -35.2127 -18.1501 -10.1231
ltibia 27.58
lfoot -13.8042 -2.99683
ltoes -21.2143
781
root 7.88195 20.3236 4.32758 -162.977 117.564 -186.964
lowerback -14.917 -0.86002 -2.70015
upperback -3.83882 -0.661569 0.968837
thorax 4.33489 -0.29528 2.43048
lowerneck -19.6499 -6.7461 -2.38146
upperneck 36.07 -12.6633 10.0192
head 17.5547 -3.79528 2.39099
rclavicle 8.74653e-014 1.47101e-014
rhumerus -38.8781 -9.46857 -68.785
rradius 35.4503
rwrist -8.44581
rhand -21.2066 -19.058
rfingers 7.12502
rthumb 5.17485 -48.9748
lclavicle 8.74653e-014 1.47101e-014
lhumerus -40.8587 -11.9074 76.0706
lradius 26.295
lwrist 43.029
lhand -30.0145 -0.493118
lfingers 7.12502
lthumb -3.33142 29.4606
rfemur -47.8992 34.6908 7.92161
rtibia 36.5064
rfoot -14.6833 8.97072
rtoes 1.92406
lfemur -35.2079 -17.6852 -10.1856
ltibia 27.6108
lfoot -13.8355 -2.49308
ltoes -21.6762
782
root 7.88584 20.3255 4.29945 -163.001 118.39 -187.226
lowerback -14.9778 -0.969439 -2.95117
upperback -3.92498 -0.769635 1.04241
thorax 4.2872 -0.347941 2.63055
lowerneck -19.6994 -6.70988 -2.37287
upperneck 36.1979 -12.6247 9.97459
head 17.6279 -3.78155 2.38051
rclavicle -3.57812e-015 7.95139e-016
rhumerus -39.196 -9.55885 -68.6175
rradius 35.41
rwrist -8.45397
rhand -21.0476 -19.0045
rfingers 7.12502
rthumb 5.32841 -48.9175
lclavicle -3.57812e-015 7.95139e-016
lhumerus -40.548 -12.02 75.8026
lradius 26.4413
lwrist 43.0965
lhand -30.073 -0.581837
lfingers 7.12502
lthumb -3.38792 29.371
rfemur -48.344 34.9482 7.61826
rtibia 36.2865
rfoot -14.4744 9.54006
rtoes 2.66051
lfemur -35.2231 -17.2491 -10.2353
ltibia 27.6613
lfoot -13.8617 -1.93215
ltoes -22.232
783
root 7.88954 20.327 4.2702 -162.997 119.218 -187.455
lowerback -15.035 -1.07701 -3.21344
upperback -4.00479 -0.874558 1.13244
thorax 4.24549 -0.399143 2.85506
lowerneck -19.7729 -6.66901 -2.39319
upperneck 36.3255 -12.5627 9.91466
head 17.7053 -3.76414 2.37236
rclavicle -4.37326e-015 1.35174e-014
rhumerus -39.4877 -9.65971 -68.411
rradius 35.329
rwrist -8.43522
rhand -20.9051 -18.9381
rfingers 7.12502
rthumb 5.46597 -48.8476
lclavicle -4.37326e-015 1.35174e-014
lhumerus -40.2003 -12.0489 75.5272
lradius 26.5843
lwrist 43.1236
lhand -30.1604 -0.655766
lfingers 7.12502
lthumb -3.47231 29.2957
rfemur -48.797 35.1924 7.30442
rtibia 36.0801
rfoot -14.2711 10.0968
rtoes 3.39064
lfemur -35.2487 -16.8584 -10.2861
ltibia 27.7221
lfoot -13.869 -1.31595
ltoes -22.8456
784
root 7.89323 20.328 4.24011 -162.948 120.05 -187.628
lowerback -15.0831 -1.18965 -3.50797
upperback -4.0774 -0.982641 1.24013
thorax 4.20846 -0.452171 3.11612
lowerneck -19.8786 -6.62161 -2.45178
upperneck 36.4621 -12.4721 9.84009
head 17.7946 -3.74155 2.36985
rclavicle 2.20651e-014 -6.75868e-015
rhumerus -39.7363 -9.74645 -68.1711
rradius 35.1904
rwrist -8.40073
rhand -20.759 -18.8565
rfingers 7.12502
rthumb 5.60702 -48.7623
lclavicle 2.20651e-014 -6.75868e-015
lhumerus -39.8299 -11.9973 75.2502
lradius 26.7363
lwrist 43.1374
lhand -30.2584 -0.726588
lfingers 7.12502
lthumb -3.56697 29.2233
rfemur -49.2473 35.3969 6.98778
rtibia 35.8992
rfoot -14.0827 10.6533
rtoes 4.08087
lfemur -35.2719 -16.5103 -10.356
ltibia 27.7806
lfoot -13.8483 -0.663683
ltoes -23.4763
785
root 7.89678 20.3288 4.20945 -162.836 120.886 -187.718
lowerback -15.1167 -1.30014 -3.82706
upperback -4.14717 -1.08404 1.33351
thorax 4.16745 -0.50181 3.37754
lowerneck -20.0024 -6.57183 -2.50963
upperneck 36.5999 -12.3764 9.76126
head 17.8886 -3.71692 2.36602
rclavicle 6.63941e-014 -2.3059e-014
rhumerus -39.9646 -9.85639 -67.9215
rradius 35.0004
rwrist -8.34418
rhand -20.5959 -18.7759
rfingers 7.12502
rthumb 5.76449 -48.6774
lclavicle 6.63941e-014 -2.3059e-014
lhumerus -39.4367 -11.9 74.9368
lradius 26.8985
lwrist 43.1363
lhand -30.3613 -0.791415
lfingers 7.12502
lthumb -3.66638 29.1568
rfemur -49.711 35.5918 6.6315
rtibia 35.7535
rfoot -13.9195 11.1432
rtoes 4.59783
lfemur -35.291 -16.2018 -10.4605
ltibia 27.8284
lfoot -13.7946 0.00210217
ltoes -24.0747
